<?xml version="1.0" encoding="UTF-8"?>
<svg width="110px" height="44px" viewBox="0 0 110 44" version="1.1" xmlns="http://www.w3.org/2000/svg" xmlns:xlink="http://www.w3.org/1999/xlink">
    <!-- Generator: Sketch 56.2 (81672) - https://sketch.com -->
    <title>var_logo</title>
    <desc>Created with Sketch.</desc>
    <g id="Page-1" stroke="none" stroke-width="1" fill="none" fill-rule="evenodd">
        <g id="HOME" transform="translate(-30.000000, -57.000000)" fill="#231F20" fill-rule="nonzero">
            <g id="var_logo" transform="translate(30.000000, 57.000000)">
                <path d="M13.4041706,44 L0,0 L9.63052133,0 L16.4553555,23.6793357 C17.4724171,27.2769083 18.1948815,29.7994251 18.5596209,31.1766209 L18.7981043,31.1766209 C19.4574408,28.5346535 20.2009479,25.8997126 20.9023697,23.2647716 L27.4255924,0 L37,0 L23.8763981,44 L13.4041706,44 Z" id="Path"></path>
                <path d="M60.2240886,0 L73,44 L63.5363619,44 L61.3117007,35.2519962 L47.751861,35.2519962 L45.4636381,44 L36,44 L48.4722275,0 L60.2240886,0 Z M54.4964688,7.85563718 L54.2563466,7.85563718 L49.4397786,27.754711 L59.383661,27.754711 L54.4964688,7.85563718 Z" id="Shape"></path>
                <path d="M88.3544585,44 L79,44 L79,0 L92.9386258,0 C99.942406,0 108.79364,0.962631747 108.79364,12.767167 C108.79364,18.3462153 106.615299,22.6042798 100.56282,24.4592782 L110,44 L99.7080276,44 L91.5254614,26.0191632 L88.3544585,26.0191632 L88.3544585,44 Z M88.3544585,19.0067071 C93.7038025,19.0067071 94.5585946,19.0067071 95.8821437,18.5289045 C98.8808094,17.4468221 99.1151879,15.0507825 99.1151879,12.6547429 C99.1151879,9.59118492 98.177674,8.09453849 96.2957527,7.37783456 C94.8274405,6.83679336 93.6486547,6.83679336 88.3544585,6.83679336 L88.3544585,19.0067071 Z" id="Shape"></path>
            </g>
        </g>
    </g>
</svg>